<?xml version="1.0" encoding="UTF-8"?>
<svg width="36" height="34" viewBox="0 0 36 34" fill="none" xmlns="http://www.w3.org/2000/svg">
  <!-- Speaker body (same as volume, but without waves) -->
  <path d="M8 23H1.5C1.06667 23 0.708333 22.8583 0.425 22.575C0.141667 22.2917 0 21.9333 0 21.5V12.5C0 12.0667 0.141667 11.7083 0.425 11.425C0.708333 11.1417 1.06667 11 1.5 11H8L15.45 3.54999C15.9167 3.08333 16.4583 2.97499 17.075 3.22499C17.6917 3.47499 18 3.93333 18 4.59999V29.4C18 30.0667 17.6917 30.525 17.075 30.775C16.4583 31.025 15.9167 30.9167 15.45 30.45L8 23Z" fill="white"/>
  
  <!-- Mute "X" -->
  <line x1="24" y1="11" x2="32" y2="23" stroke="white" stroke-width="3" stroke-linecap="round"/>
  <line x1="32" y1="11" x2="24" y2="23" stroke="white" stroke-width="3" stroke-linecap="round"/>
</svg>
