<?xml version="1.0" encoding="UTF-8"?>
<svg width="36" height="42" viewBox="0 0 36 42" fill="none" xmlns="http://www.w3.org/2000/svg">
  <!-- Circular replay arrow -->
  <path d="M18 42C15.5 42 13.1583 41.5333 10.975 40.6C8.79167 39.6667 6.88333 38.3833 5.25 36.75C3.61667 35.1167 2.33333 33.2083 1.4 31.025C0.466667 28.8417 0 26.5 0 24C0 21.5 0.466667 19.1583 1.4 16.975C2.33333 14.7917 3.61667 12.8833 5.25 11.25C6.88333 9.61666 8.79167 8.33333 10.975 7.39999C13.1583 6.46666 15.5 5.99999 18 5.99999H19.15L16.3 3.14999C16.0333 2.88333 15.9 2.54166 15.9 2.12499C15.9 1.70833 16.0275 1.36666 16.2825 1.09999C16.5608 0.833327 16.9 0.69166 17.3 0.674994C17.7 0.658327 18.0333 0.783327 18.3 1.04999L23.6 6.34999C23.9 6.64999 24.05 6.99999 24.05 7.39999C24.05 7.79999 23.9 8.14999 23.6 8.44999L18.35 13.7C18.05 14 17.7 14.15 17.3 14.15C16.9 14.15 16.5435 14 16.2305 13.7C15.9435 13.4 15.8 13.05 15.8 12.65C15.8 12.25 15.95 11.9 16.25 11.6L18.85 8.99999H17.75C13.5833 8.99999 10.0833 10.4553 7.25 13.366C4.41667 16.2767 3 19.8213 3 24C3 28.1787 4.45533 31.7233 7.366 34.634C10.2767 37.5447 13.8213 39 18 39C22.1787 39 25.7233 37.5447 28.634 34.634C31.5447 31.7233 33 28.1787 33 24C33 23.575 33.1447 23.2187 33.434 22.931C33.723 22.6437 34.0813 22.5 34.509 22.5C34.9363 22.5 35.2917 22.6437 35.575 22.931C35.8583 23.2187 36 23.575 36 24C36 26.5 35.5333 28.8417 34.6 31.025C33.6667 33.2083 32.3833 35.1167 30.75 36.75C29.1167 38.3833 27.2083 39.6667 25.025 40.6C22.8417 41.5333 20.5 42 18 42Z" fill="white"/>
  
  <!-- Centered replay triangle (rotated play, pointing left) -->
  <path d="M13 16V32L25 24L13 16Z" fill="white"/>
</svg>
